<svg width="31" height="29" viewBox="0 0 31 29" fill="none" xmlns="http://www.w3.org/2000/svg">
<path d="M18 17.75H16.5V19.25H18V17.75Z" fill="#15265E"/>
<path d="M21 11H3V8.75H19.5V7.25H3C2.60218 7.25 2.22064 7.40804 1.93934 7.68934C1.65804 7.97064 1.5 8.35218 1.5 8.75V24.5C1.5 24.8978 1.65804 25.2794 1.93934 25.5607C2.22064 25.842 2.60218 26 3 26H21C21.3978 26 21.7794 25.842 22.0607 25.5607C22.342 25.2794 22.5 24.8978 22.5 24.5V12.5C22.5 12.1022 22.342 11.7206 22.0607 11.4393C21.7794 11.158 21.3978 11 21 11ZM3 24.5V12.5H21V14.75H15C14.6022 14.75 14.2206 14.908 13.9393 15.1893C13.658 15.4706 13.5 15.8522 13.5 16.25V20.75C13.5 21.1478 13.658 21.5294 13.9393 21.8107C14.2206 22.092 14.6022 22.25 15 22.25H21V24.5H3ZM21 16.25V20.75H15V16.25H21Z" fill="#15265E"/>
<path d="M30.0104 1.35355C30.2057 1.15829 30.2057 0.841709 30.0104 0.646447C29.8152 0.451184 29.4986 0.451184 29.3033 0.646447L30.0104 1.35355ZM23.5 6.65685C23.5 6.933 23.7239 7.15685 24 7.15685L28.5 7.15685C28.7761 7.15685 29 6.933 29 6.65685C29 6.38071 28.7761 6.15685 28.5 6.15685L24.5 6.15685L24.5 2.15685C24.5 1.88071 24.2761 1.65685 24 1.65685C23.7239 1.65685 23.5 1.88071 23.5 2.15685L23.5 6.65685ZM29.3033 0.646447L23.6465 6.3033L24.3536 7.01041L30.0104 1.35355L29.3033 0.646447Z" fill="#14BD43"/>
</svg>
