<svg width="40" height="37" viewBox="0 0 40 37" fill="none" xmlns="http://www.w3.org/2000/svg">
<path d="M11.6369 22.5444C11.6373 21.855 11.8821 21.1878 12.3283 20.6603C12.7744 20.1328 13.3934 19.7788 14.0761 19.6606V18.6495C13.1234 18.7704 12.2476 19.2327 11.6129 19.9497C10.9782 20.6668 10.6282 21.5895 10.6282 22.545C10.6282 23.5004 10.9782 24.4231 11.6129 25.1402C12.2476 25.8573 13.1234 26.3196 14.0761 26.4405V25.4294C13.3932 25.3111 12.7741 24.9569 12.3279 24.4292C11.8817 23.9015 11.637 23.234 11.6369 22.5444Z" fill="#15265E"/>
<path d="M20.1291 22.0445C20.0115 20.7519 19.4418 19.5414 18.5193 18.6236C17.5968 17.7059 16.38 17.1392 15.0808 17.0222C14.9152 17.0074 14.7477 17 14.5781 17C14.4085 17 14.2408 17.0074 14.0753 17.0222C12.6889 17.1459 11.3993 17.7813 10.46 18.8033C9.5208 19.8253 9 21.1599 9 22.5447C9 23.9295 9.5208 25.2641 10.46 26.2861C11.3993 27.3081 12.6889 27.9435 14.0753 28.0672C14.2408 28.082 14.4085 28.0894 14.5781 28.0894C14.7477 28.0894 14.9152 28.082 15.0808 28.0672C16.38 27.9502 17.5968 27.3835 18.5193 26.4658C19.4418 25.548 20.0115 24.3375 20.1291 23.0449C20.144 22.8801 20.1515 22.7134 20.1517 22.5447C20.1519 22.376 20.1443 22.2093 20.1291 22.0445ZM15.0808 27.4471V26.4405C14.7469 26.4826 14.4091 26.4826 14.0753 26.4405V27.4471C12.8554 27.3229 11.7253 26.7529 10.9036 25.8475C10.0818 24.942 9.62689 23.7655 9.62689 22.5455C9.62689 21.3256 10.0818 20.1491 10.9036 19.2436C11.7253 18.3382 12.8554 17.7682 14.0753 17.644V18.6506C14.4091 18.6085 14.7469 18.6085 15.0808 18.6506V17.644C16.3006 17.7682 17.4309 18.3382 18.2526 19.2436C19.0744 20.1491 19.5291 21.3256 19.5291 22.5455C19.5291 23.7655 19.0744 24.942 18.2526 25.8475C17.4309 26.7529 16.3006 27.3229 15.0808 27.4471Z" fill="#15265E"/>
<path d="M17.1034 21.0422H18.2264C17.9602 20.4035 17.5294 19.846 16.9774 19.4259C16.4254 19.0058 15.7718 18.738 15.0825 18.6495V19.6606C15.4994 19.7329 15.8957 19.8937 16.2444 20.1321C16.5932 20.3705 16.8862 20.681 17.1034 21.0422Z" fill="#15265E"/>
<path d="M17.4776 22.0446H14.0764V23.0446H17.4776C17.3737 23.6391 17.0878 24.1872 16.6589 24.6139C16.2301 25.0406 15.6792 25.3251 15.0817 25.4285V26.4397C16.1196 26.306 17.0617 25.7682 17.7014 24.9442C18.3412 24.1202 18.6263 23.0774 18.494 22.0446H17.4776Z" fill="#15265E"/>
<path d="M25.976 18L23.416 13.552H22.024V18H20.2V6.88H24.04C24.8933 6.88 25.6133 7.02933 26.2 7.328C26.7973 7.62667 27.24 8.02667 27.528 8.528C27.8267 9.02933 27.976 9.58933 27.976 10.208C27.976 10.9333 27.7627 11.5947 27.336 12.192C26.92 12.7787 26.2747 13.1787 25.4 13.392L28.152 18H25.976ZM22.024 12.096H24.04C24.7227 12.096 25.2347 11.9253 25.576 11.584C25.928 11.2427 26.104 10.784 26.104 10.208C26.104 9.632 25.9333 9.184 25.592 8.864C25.2507 8.53333 24.7333 8.368 24.04 8.368H22.024V12.096ZM37.8134 14.832C37.8134 15.3653 37.68 15.8667 37.4134 16.336C37.1574 16.8053 36.7734 17.2 36.2614 17.52C35.76 17.84 35.1627 18.032 34.4694 18.096V19.392H33.4294V18.096C32.4267 18 31.616 17.6853 30.9974 17.152C30.3787 16.6187 30.0694 15.9147 30.0694 15.04H32.0214C32.0534 15.456 32.1867 15.8027 32.4214 16.08C32.656 16.3467 32.992 16.5173 33.4294 16.592V13.072C32.7147 12.8907 32.1334 12.7093 31.6854 12.528C31.2374 12.336 30.8534 12.0373 30.5334 11.632C30.224 11.2267 30.0694 10.672 30.0694 9.968C30.0694 9.08267 30.3787 8.352 30.9974 7.776C31.616 7.18933 32.4267 6.848 33.4294 6.752V5.456H34.4694V6.752C35.408 6.83733 36.16 7.136 36.7254 7.648C37.3014 8.14933 37.6267 8.84267 37.7014 9.728H35.7494C35.7174 9.39733 35.5894 9.104 35.3654 8.848C35.1414 8.58133 34.8427 8.4 34.4694 8.304V11.76C35.184 11.9307 35.7654 12.112 36.2134 12.304C36.6614 12.4853 37.04 12.7787 37.3494 13.184C37.6587 13.5787 37.8134 14.128 37.8134 14.832ZM31.9254 9.872C31.9254 10.3093 32.0534 10.6507 32.3094 10.896C32.576 11.1413 32.9494 11.3387 33.4294 11.488V8.256C32.9707 8.30933 32.6027 8.47467 32.3254 8.752C32.0587 9.02933 31.9254 9.40267 31.9254 9.872ZM34.4694 16.592C34.9387 16.5173 35.3067 16.3307 35.5734 16.032C35.84 15.7227 35.9734 15.3547 35.9734 14.928C35.9734 14.5013 35.84 14.1707 35.5734 13.936C35.3174 13.6907 34.9494 13.4933 34.4694 13.344V16.592Z" fill="#15265E"/>
<path d="M14.5 9C7.04416 9 1 15.0442 1 22.5C1 29.9558 7.04416 36 14.5 36C21.9558 36 28 29.9558 28 22.5" stroke="#15265E" stroke-linecap="round"/>
<path d="M12 6L15 9L12 12" stroke="#15265E" stroke-linecap="round" stroke-linejoin="round"/>
</svg>
