<svg width="18" height="15" viewBox="0 0 18 15" fill="none" xmlns="http://www.w3.org/2000/svg">
<path fill-rule="evenodd" clip-rule="evenodd" d="M9 11C10.6569 11 12 9.65685 12 8C12 7.68986 11.9529 7.39072 11.8656 7.10932C11.6759 6.49835 11.2962 5.97102 10.7955 5.59643C11.2962 5.97102 11.6759 6.49834 11.8655 7.10931C11.8715 7.1284 11.8772 7.14757 11.8828 7.16682L8.15582 10.8796C8.4236 10.958 8.70689 11 9 11ZM7.83226 10.7642C7.07451 10.4437 6.47585 9.82076 6.18764 9.04667L10.0574 5.19165C9.72852 5.06777 9.37218 5 9 5C7.34315 5 6 6.34315 6 8C6 8.36814 6.06631 8.72079 6.18764 9.04667L6.18762 9.04669C6.47583 9.82077 7.07451 10.4437 7.83226 10.7642Z" fill="#454545"/>
<path fill-rule="evenodd" clip-rule="evenodd" d="M12.6316 2.66174C13.5045 3.01835 14.2627 3.50408 14.9451 4.08157L12.6521 6.36584C12.2819 5.53982 11.6397 4.86225 10.8395 4.44711L12.6316 2.66174ZM3.20941 12.0482C3.90482 12.6126 4.67926 13.0821 5.57195 13.4191L7.35198 11.6458C6.52761 11.2726 5.85234 10.6279 5.44014 9.82592L3.20941 12.0482ZM8.99897 6.2806V10.0051L8.99899 10.005V6.28059L8.99897 6.2806ZM2.09244 5C1.4487 5.68757 0.64513 6.7843 0.177612 7.44397C-0.0592039 7.77811 -0.0592042 8.22189 0.177612 8.55604C0.64513 9.21571 1.4487 10.3124 2.09244 11C3.7422 12.7621 5.79589 14 8.99892 14V12C8.99893 12 8.99893 12 8.99894 12V14C12.202 14 14.2557 12.7621 15.9054 11C16.5492 10.3124 17.3527 9.21571 17.8202 8.55604C18.0571 8.22189 18.0571 7.77811 17.8202 7.44397C17.3527 6.7843 16.5492 5.68757 15.9054 5C14.2557 3.23794 12.202 2 8.99894 2V4C8.99893 4 8.99893 4 8.99892 4V2C5.79589 2 3.7422 3.23794 2.09244 5ZM8.99894 4V12C8.99928 12 8.99963 12 8.99997 12C11.2091 12 13 10.2091 13 8C13 5.79086 11.2091 4 8.99997 4C8.99963 4 8.99928 4 8.99894 4ZM8.99892 4V12C6.79026 11.9994 4.99997 10.2088 4.99997 8C4.99997 5.79122 6.79026 4.00057 8.99892 4Z" fill="#454545"/>
<rect x="1.60522" y="13.5686" width="17.9268" height="1.58563" rx="0.2" transform="rotate(-44.8909 1.60522 13.5686)" fill="#454545"/>
</svg>
