<svg width="18" height="12" viewBox="0 0 18 12" fill="none" xmlns="http://www.w3.org/2000/svg">
<path fill-rule="evenodd" clip-rule="evenodd" d="M2.09244 3C1.4487 3.68757 0.64513 4.78429 0.177612 5.44396C-0.0592039 5.77811 -0.0592042 6.22189 0.177612 6.55604C0.64513 7.21571 1.4487 8.31243 2.09244 9C3.7422 10.7621 5.79589 12 8.99892 12V10C8.99893 10 8.99893 10 8.99894 10V12C12.202 12 14.2557 10.7621 15.9054 9C16.5492 8.31243 17.3527 7.21571 17.8202 6.55604C18.0571 6.22189 18.0571 5.77811 17.8202 5.44396C17.3527 4.78429 16.5492 3.68757 15.9054 3C14.2557 1.23793 12.202 0 8.99894 0V2C8.99893 2 8.99893 2 8.99892 2V0C5.79589 0 3.7422 1.23793 2.09244 3ZM8.99894 2V10C8.99928 10 8.99963 10 8.99997 10C11.2091 10 13 8.20914 13 6C13 3.79086 11.2091 2 8.99997 2C8.99963 2 8.99928 2 8.99894 2ZM8.99892 2V10C6.79026 9.99943 4.99997 8.20879 4.99997 6C4.99997 3.79121 6.79026 2.00057 8.99892 2Z" fill="#454545"/>
<circle cx="9" cy="6" r="3" fill="#454545"/>
</svg>
