<svg width="252" height="57" viewBox="0 0 252 57" fill="none" xmlns="http://www.w3.org/2000/svg">
<g clip-path="url(#clip0_1:814)">
<path d="M73.9073 29.5866C73.989 27.0073 74.9612 24.5347 76.6602 22.5847C78.3591 20.6347 80.681 19.3263 83.2357 18.8796C85.7905 18.4329 88.4219 18.8751 90.6874 20.1319C92.9529 21.3886 94.7142 23.3833 95.675 25.7803H91.1092C90.4997 24.744 89.6182 23.8926 88.5587 23.3177C87.4992 22.7428 86.3017 22.4661 85.0959 22.5174C83.2302 22.5523 81.4527 23.314 80.1457 24.639C78.8386 25.964 78.1065 27.7463 78.1065 29.6028C78.1065 31.4593 78.8386 33.2416 80.1457 34.5665C81.4527 35.8915 83.2302 36.6533 85.0959 36.6882C86.5413 36.8005 87.9841 36.435 89.1994 35.6486C90.4147 34.8621 91.3346 33.6986 91.8174 32.3385H83.8114V28.6909H96.2538V30.6421C95.7716 36.3684 91.2699 40.462 85.0959 40.462C83.6294 40.5331 82.164 40.3024 80.7913 39.7844C79.4185 39.2664 78.1683 38.4722 77.1182 37.4514C76.068 36.4307 75.2409 35.2054 74.6884 33.8521C74.1359 32.4989 73.87 31.0467 73.9073 29.5866Z" fill="white"/>
<path d="M98.7714 29.5866C98.7195 27.3738 99.3318 25.1958 100.53 23.3307C101.728 21.4656 103.457 19.998 105.497 19.1153C107.537 18.2326 109.796 17.9748 111.984 18.3749C114.173 18.7749 116.191 19.8147 117.783 21.3614C119.374 22.9081 120.466 24.8916 120.919 27.0586C121.372 29.2255 121.166 31.4777 120.327 33.5276C119.488 35.5774 118.053 37.3319 116.207 38.567C114.361 39.8022 112.187 40.4619 109.962 40.462C108.495 40.5333 107.03 40.3028 105.657 39.7848C104.284 39.2669 103.033 38.4727 101.983 37.452C100.933 36.4312 100.105 35.2058 99.5525 33.8525C99 32.4991 98.7341 31.0469 98.7714 29.5866ZM116.971 29.5866C116.946 28.2128 116.513 26.877 115.728 25.7468C114.943 24.6166 113.839 23.7423 112.556 23.2338C111.273 22.7253 109.868 22.6051 108.516 22.8884C107.165 23.1716 105.928 23.8458 104.96 24.8261C103.992 25.8064 103.337 27.0493 103.077 28.3987C102.816 29.7481 102.963 31.1438 103.497 32.4108C104.032 33.6779 104.93 34.7596 106.08 35.5204C107.23 36.2811 108.581 36.687 109.962 36.687C110.903 36.7227 111.841 36.5626 112.716 36.2167C113.591 35.8708 114.384 35.3468 115.044 34.6783C115.704 34.0098 116.216 33.2116 116.547 32.3348C116.879 31.458 117.023 30.5219 116.97 29.5866H116.971Z" fill="white"/>
<path d="M121.151 19.1259H125.62L131.118 35.2804L136.584 19.1259H140.958L133.337 40.046H128.803L121.151 19.1259Z" fill="white"/>
<path d="M151.283 22.9321H145.013V19.1259H161.669V22.9321H155.4V40.046H151.284L151.283 22.9321Z" fill="white"/>
<path d="M161.668 32.1449C161.629 30.4538 162.098 28.7896 163.014 27.3647C163.931 25.9399 165.253 24.819 166.813 24.1451C168.372 23.4712 170.098 23.2749 171.77 23.5813C173.442 23.8877 174.985 24.6829 176.2 25.8653C177.416 27.0477 178.251 28.5638 178.596 30.2199C178.942 31.8761 178.785 33.5972 178.143 35.1636C177.501 36.73 176.404 38.0707 174.993 39.0144C173.582 39.9581 171.92 40.4621 170.22 40.462C169.099 40.5158 167.979 40.3389 166.93 39.9425C165.88 39.5461 164.924 38.9386 164.122 38.1581C163.319 37.3775 162.687 36.4406 162.265 35.406C161.843 34.3713 161.639 33.2612 161.668 32.1449ZM174.88 31.9638C174.909 30.9188 174.567 29.8971 173.914 29.0782C173.261 28.2592 172.338 27.6953 171.309 27.4854C170.539 27.2722 169.726 27.2619 168.95 27.4556C168.175 27.6492 167.463 28.0403 166.886 28.5903C166.308 29.1402 165.884 29.8302 165.655 30.5925C165.426 31.3547 165.401 32.1631 165.581 32.9381C165.69 33.9817 166.169 34.9526 166.932 35.6768C167.695 36.401 168.693 36.8312 169.746 36.8906C170.416 36.9371 171.09 36.843 171.722 36.6143C172.354 36.3857 172.93 36.0275 173.414 35.5631C173.898 35.0987 174.278 34.5383 174.531 33.9183C174.783 33.2983 174.902 32.6324 174.88 31.9638Z" fill="white"/>
<path d="M181.334 19.1259H185.159V31.1531L191.758 23.8278H196.645L188.888 31.985L196.636 40.046H191.653L185.158 32.9132V40.046H181.332L181.334 19.1259Z" fill="white"/>
<path d="M196.648 32.1449C196.695 29.9277 197.613 27.817 199.206 26.2654C200.798 24.7139 202.939 23.8449 205.168 23.8449C207.397 23.8449 209.538 24.7139 211.131 26.2654C212.723 27.817 213.642 29.9277 213.689 32.1449V33.489H200.666C200.862 34.5238 201.431 35.452 202.266 36.0997C203.1 36.7474 204.143 37.0703 205.2 37.008C205.87 37.0639 206.543 36.9718 207.172 36.7383C207.802 36.5049 208.372 36.1358 208.841 35.6576C208.881 35.6105 208.931 35.5724 208.987 35.5461C209.043 35.5198 209.105 35.5059 209.167 35.5052H213.051C212.419 37.037 211.326 38.3363 209.921 39.2242C208.516 40.1121 206.869 40.545 205.206 40.4633C204.084 40.518 202.963 40.3417 201.913 39.9456C200.863 39.5495 199.907 38.9421 199.103 38.1613C198.3 37.3805 197.667 36.4431 197.245 35.4079C196.822 34.3727 196.619 33.2619 196.648 32.1449ZM209.638 30.4497C209.324 29.5267 208.726 28.7248 207.93 28.1569C207.134 27.5889 206.18 27.2835 205.2 27.2835C204.221 27.2835 203.266 27.5889 202.47 28.1569C201.674 28.7248 201.076 29.5267 200.762 30.4497H209.638Z" fill="white"/>
<path d="M216.233 31.8289C216.233 26.5511 219.385 23.8341 224.08 23.8341C228.775 23.8341 231.925 26.5211 231.925 31.8289V40.0498H228.099V31.8289C228.099 28.8221 226.491 27.383 224.081 27.383C221.671 27.383 220.063 28.8221 220.063 31.8289V40.0498H216.236L216.233 31.8289Z" fill="white"/>
<path d="M13.527 28.5C13.5289 24.9564 14.7874 21.5271 17.0807 18.8157C19.374 16.1043 22.5553 14.2847 26.0645 13.6771V8.47986C21.1676 9.10126 16.666 11.4774 13.4036 15.1633C10.1413 18.8491 8.34216 23.5918 8.34216 28.5029C8.34216 33.4141 10.1413 38.1567 13.4036 41.8426C16.666 45.5284 21.1676 47.9046 26.0645 48.526V43.3288C22.5543 42.721 19.3719 40.9005 17.0785 38.1879C14.7851 35.4753 13.5275 32.0446 13.527 28.5Z" fill="white"/>
<path d="M57.1769 25.9307C56.5725 19.2867 53.6441 13.0642 48.9025 8.34699C44.1609 3.62978 37.9066 0.716831 31.2283 0.11553C30.3772 0.0395302 29.5161 0.00152588 28.6444 0.00152588C27.7728 0.00152588 26.911 0.0395302 26.0599 0.11553C18.9339 0.751531 12.3053 4.01729 7.47753 9.2704C2.64978 14.5235 -0.0271606 21.3837 -0.0271606 28.5015C-0.0271606 35.6194 2.64978 42.4795 7.47753 47.7327C12.3053 52.9858 18.9339 56.2515 26.0599 56.8875C26.911 56.9635 27.7728 57.0015 28.6444 57.0015C29.5161 57.0015 30.3772 56.9635 31.2283 56.8875C37.9066 56.2862 44.1609 53.3733 48.9025 48.6561C53.6441 43.9389 56.5725 37.7164 57.1769 31.0724C57.2533 30.2257 57.2921 29.3687 57.2931 28.5015C57.2941 27.6343 57.2552 26.7774 57.1769 25.9307ZM31.2283 53.6999V48.5261C29.5124 48.7424 27.7758 48.7424 26.0599 48.5261V53.6999C19.7898 53.0617 13.9811 50.132 9.75719 45.4779C5.53333 40.8238 3.19508 34.7763 3.19508 28.5059C3.19508 22.2355 5.53333 16.188 9.75719 11.5339C13.9811 6.87983 19.7898 3.95014 26.0599 3.31189V8.48575C27.7758 8.26939 29.5124 8.26939 31.2283 8.48575V3.31189C37.4984 3.95014 43.3078 6.87983 47.5317 11.5339C51.7556 16.188 54.0931 22.2355 54.0931 28.5059C54.0931 34.7763 51.7556 40.8238 47.5317 45.4779C43.3078 50.132 37.4984 53.0617 31.2283 53.6999Z" fill="white"/>
<path d="M41.6248 20.7787H47.3971C46.0287 17.4958 43.8143 14.6301 40.977 12.4708C38.1397 10.3114 34.78 8.9348 31.2371 8.47986V13.6771C33.3799 14.0485 35.417 14.8751 37.2096 16.1007C39.0022 17.3262 40.508 18.9218 41.6248 20.7787Z" fill="white"/>
<path d="M43.5477 25.9306H26.0657V31.0709H43.5477C43.0139 34.1267 41.5443 36.9439 39.3399 39.1372C37.1355 41.3306 34.3042 42.7929 31.2326 43.3244V48.5216C36.5675 47.8348 41.41 45.0704 44.6983 40.835C47.9866 36.5996 49.452 31.2394 48.772 25.9306H43.5477Z" fill="white"/>
</g>
<defs>
<clipPath id="clip0_1:814">
<rect width="252" height="57" fill="white"/>
</clipPath>
</defs>
</svg>
