<svg width="39" height="39" viewBox="0 0 39 39" fill="none" xmlns="http://www.w3.org/2000/svg">
<path d="M9.14638 19.2308C9.14766 16.8396 9.99686 14.5255 11.5444 12.6958C13.0919 10.8662 15.2387 9.63827 17.6067 9.22828V5.72119C14.3023 6.14051 11.2645 7.74396 9.06312 10.2312C6.8617 12.7184 5.64764 15.9187 5.64764 19.2328C5.64764 22.5468 6.8617 25.7471 9.06312 28.2344C11.2645 30.7216 14.3023 32.325 17.6067 32.7443V29.2372C15.238 28.8271 13.0905 27.5987 11.5429 25.7682C9.99533 23.9377 9.14672 21.6227 9.14638 19.2308V19.2308Z" fill="white"/>
<path d="M38.6013 17.497C38.1934 13.0136 36.2174 8.81469 33.0177 5.63152C29.8181 2.44835 25.5977 0.482688 21.0912 0.0769301C20.5168 0.0256453 19.9358 0 19.3476 0C18.7594 0 18.1779 0.0256453 17.6036 0.0769301C12.795 0.506103 8.32193 2.70984 5.06416 6.25463C1.8064 9.79943 0 14.4287 0 19.2318C0 24.0349 1.8064 28.6642 5.06416 32.209C8.32193 35.7538 12.795 37.9575 17.6036 38.3867C18.1779 38.438 18.7594 38.4636 19.3476 38.4636C19.9358 38.4636 20.5168 38.438 21.0912 38.3867C25.5977 37.9809 29.8181 36.0153 33.0177 32.8321C36.2174 29.6489 38.1934 25.45 38.6013 20.9666C38.6529 20.3953 38.6791 19.817 38.6797 19.2318C38.6804 18.6466 38.6542 18.0684 38.6013 17.497ZM21.0912 36.2357V32.7444C19.9333 32.8904 18.7614 32.8904 17.6036 32.7444V36.2357C13.3725 35.805 9.45275 33.828 6.60248 30.6875C3.75222 27.5469 2.17437 23.4661 2.17437 19.2348C2.17437 15.0035 3.75222 10.9226 6.60248 7.78204C9.45275 4.64148 13.3725 2.66453 17.6036 2.23383V5.72515C18.7614 5.57916 19.9333 5.57916 21.0912 5.72515V2.23383C25.3222 2.66453 29.2425 4.64148 32.0927 7.78204C34.943 10.9226 36.5204 15.0035 36.5204 19.2348C36.5204 23.4661 34.943 27.5469 32.0927 30.6875C29.2425 33.828 25.3222 35.805 21.0912 36.2357V36.2357Z" fill="white"/>
<path d="M28.1067 14.0205H32.0019C31.0785 11.8052 29.5842 9.87139 27.6696 8.41426C25.755 6.95712 23.4879 6.02819 21.0971 5.72119V9.22828C22.5431 9.47891 23.9177 10.0367 25.1273 10.8637C26.337 11.6907 27.3531 12.7674 28.1067 14.0205V14.0205Z" fill="white"/>
<path d="M29.4043 17.4969H17.6075V20.9656H29.4043C29.0441 23.0277 28.0524 24.9287 26.5649 26.4088C25.0774 27.8888 23.1668 28.8756 21.0941 29.2343V32.7414C24.6941 32.2779 27.9618 30.4124 30.1808 27.5544C32.3997 24.6964 33.3885 21.0793 32.9297 17.4969H29.4043Z" fill="white"/>
</svg>
