<svg width="53" height="52" viewBox="0 0 53 52" fill="none" xmlns="http://www.w3.org/2000/svg">
<path d="M12.3638 25.9957C12.3656 22.7633 13.5135 19.6351 15.6054 17.1619C17.6973 14.6886 20.5993 13.0287 23.8003 12.4745V7.7337C19.3335 8.30053 15.2271 10.468 12.2513 13.8302C9.27545 17.1924 7.63432 21.5185 7.63432 25.9984C7.63432 30.4782 9.27545 34.8043 12.2513 38.1665C15.2271 41.5286 19.3335 43.6961 23.8003 44.263V39.5222C20.5984 38.9678 17.6954 37.3072 15.6034 34.8328C13.5114 32.3584 12.3643 29.229 12.3638 25.9957Z" fill="#103D98"/>
<path d="M52.1804 23.652C51.629 17.5915 48.9578 11.9155 44.6326 7.61256C40.3075 3.30962 34.6024 0.652486 28.5106 0.103992C27.7342 0.0346667 26.9488 0 26.1536 0C25.3585 0 24.5724 0.0346667 23.7961 0.103992C17.2959 0.684139 11.2494 3.66309 6.84562 8.45487C2.44185 13.2466 0 19.5044 0 25.9971C0 32.4898 2.44185 38.7476 6.84562 43.5394C11.2494 48.3311 17.2959 51.3101 23.7961 51.8902C24.5724 51.9596 25.3585 51.9942 26.1536 51.9942C26.9488 51.9942 27.7342 51.9596 28.5106 51.8902C34.6024 51.3417 40.3075 48.6846 44.6326 44.3817C48.9578 40.0787 51.629 34.4027 52.1804 28.3422C52.25 27.5698 52.2855 26.7881 52.2864 25.9971C52.2873 25.2061 52.2518 24.4244 52.1804 23.652ZM28.5106 48.9826V44.2631C26.9454 44.4604 25.3613 44.4604 23.7961 44.2631V48.9826C18.0766 48.4003 12.778 45.728 8.92509 41.4826C5.07216 37.2373 2.93926 31.7209 2.93926 26.0011C2.93926 20.2813 5.07216 14.7649 8.92509 10.5196C12.778 6.27424 18.0766 3.60185 23.7961 3.01964V7.73913C25.3613 7.54178 26.9454 7.54178 28.5106 7.73913V3.01964C34.23 3.60185 39.5293 6.27424 43.3822 10.5196C47.2351 14.7649 49.3674 20.2813 49.3674 26.0011C49.3674 31.7209 47.2351 37.2373 43.3822 41.4826C39.5293 45.728 34.23 48.4003 28.5106 48.9826Z" fill="#103D98"/>
<path d="M37.9939 18.9525H43.2593C42.0111 15.9579 39.9911 13.3439 37.403 11.3741C34.8149 9.4044 31.7503 8.14869 28.5185 7.7337V12.4745C30.4731 12.8133 32.3313 13.5673 33.9665 14.6852C35.6017 15.8031 36.9752 17.2586 37.9939 18.9525Z" fill="#103D98"/>
<path d="M39.7481 23.6519H23.8013V28.3407H39.7481C39.2611 31.1282 37.9205 33.698 35.9097 35.6987C33.8989 37.6994 31.3163 39.0334 28.5145 39.5182V44.259C33.3808 43.6325 37.7981 41.1108 40.7976 37.2474C43.7971 33.384 45.1338 28.4944 44.5136 23.6519H39.7481Z" fill="#103D98"/>
</svg>
