<svg width="31" height="29" viewBox="0 0 31 29" fill="none" xmlns="http://www.w3.org/2000/svg">
<path d="M18 17.75H16.5V19.25H18V17.75Z" fill="#15265E"/>
<path d="M21 11H3V8.75H19.5V7.25H3C2.60218 7.25 2.22064 7.40804 1.93934 7.68934C1.65804 7.97064 1.5 8.35218 1.5 8.75V24.5C1.5 24.8978 1.65804 25.2794 1.93934 25.5607C2.22064 25.842 2.60218 26 3 26H21C21.3978 26 21.7794 25.842 22.0607 25.5607C22.342 25.2794 22.5 24.8978 22.5 24.5V12.5C22.5 12.1022 22.342 11.7206 22.0607 11.4393C21.7794 11.158 21.3978 11 21 11ZM3 24.5V12.5H21V14.75H15C14.6022 14.75 14.2206 14.908 13.9393 15.1893C13.658 15.4706 13.5 15.8522 13.5 16.25V20.75C13.5 21.1478 13.658 21.5294 13.9393 21.8107C14.2206 22.092 14.6022 22.25 15 22.25H21V24.5H3ZM21 16.25V20.75H15V16.25H21Z" fill="#15265E"/>
<path d="M23.6464 6.30331C23.4512 6.49857 23.4512 6.81515 23.6464 7.01041C23.8417 7.20568 24.1583 7.20568 24.3536 7.01041L23.6464 6.30331ZM30.1569 1.00001C30.1569 0.723864 29.933 0.500006 29.6569 0.500006L25.1569 0.500006C24.8807 0.500006 24.6569 0.723864 24.6569 1.00001C24.6569 1.27615 24.8807 1.50001 25.1569 1.50001L29.1569 1.50001L29.1569 5.50001C29.1569 5.77615 29.3807 6.00001 29.6569 6.00001C29.933 6.00001 30.1569 5.77615 30.1569 5.50001L30.1569 1.00001ZM24.3536 7.01041L30.0104 1.35356L29.3033 0.646453L23.6464 6.30331L24.3536 7.01041Z" fill="#EC2929"/>
</svg>
